<svg width="24" height="24" viewBox="0 0 24 24" fill="none" xmlns="http://www.w3.org/2000/svg">
<path fill-rule="evenodd" clip-rule="evenodd" d="M12.4311 5.18518C12.5045 5.06984 12.6317 5 12.7684 5C13.023 5 13.2127 5.23472 13.1594 5.48363L12.2365 9.79047C12.1732 10.0858 12.2468 10.3938 12.4366 10.6287C12.6265 10.8635 12.9123 11 13.2143 11H17.5604C18.1914 11 18.6647 11.5773 18.541 12.1961L17.341 18.1961C17.2475 18.6635 16.8371 19 16.3604 19H9V11V10.5769L12.4311 5.18518ZM7.63287 9L10.7437 4.11144C11.1843 3.4192 11.9479 3 12.7684 3C14.2963 3 15.4351 4.40875 15.115 5.90269L14.4513 9H17.5604C19.4535 9 20.8734 10.732 20.5021 12.5883L19.3021 18.5883C19.0217 19.9906 17.7904 21 16.3604 21H9H5C3.89543 21 3 20.1046 3 19V11C3 9.89543 3.89543 9 5 9H7.63287ZM7 11H5V19H7V11Z" fill="#353535"/>
</svg>
