<svg width="24" height="24" viewBox="0 0 24 24" fill="none" xmlns="http://www.w3.org/2000/svg">
<path fill-rule="evenodd" clip-rule="evenodd" d="M12 4C7.58172 4 4 7.58172 4 12C4 16.4183 7.58172 20 12 20C16.4183 20 20 16.4183 20 12C20 7.58172 16.4183 4 12 4ZM2 12C2 6.47715 6.47715 2 12 2C17.5228 2 22 6.47715 22 12C22 17.5228 17.5228 22 12 22C6.47715 22 2 17.5228 2 12ZM9.2812 6.55459C10.7811 5.05465 13.2243 5.09216 14.6775 6.63742C16.0689 8.11703 16.0334 10.4344 14.5972 11.8706L13 13.4677V14C13 14.5523 12.5523 15 12 15C11.4477 15 11 14.5523 11 14V13.4677C11 12.9373 11.2107 12.4286 11.5858 12.0535L13.183 10.4563C13.855 9.78429 13.8717 8.69993 13.2205 8.00756C12.5405 7.28448 11.3973 7.26693 10.6954 7.9688L10.1075 8.55674C9.71694 8.94727 9.08378 8.94727 8.69325 8.55674C8.30273 8.16622 8.30273 7.53305 8.69325 7.14253L9.2812 6.55459ZM12 19C12.8284 19 13.5 18.3284 13.5 17.5C13.5 16.6716 12.8284 16 12 16C11.1716 16 10.5 16.6716 10.5 17.5C10.5 18.3284 11.1716 19 12 19Z" fill="#353535"/>
</svg>
