<svg width="24" height="24" viewBox="0 0 24 24" fill="none" xmlns="http://www.w3.org/2000/svg">
<path fill-rule="evenodd" clip-rule="evenodd" d="M14.8961 5.82797C15.6772 5.04693 16.9435 5.04693 17.7246 5.82797L18.1716 6.27499C18.9526 7.05604 18.9526 8.32237 18.1716 9.10342L16.8315 10.4435C16.7957 10.3902 16.7542 10.3395 16.7071 10.2924L13.7071 7.29237C13.66 7.24526 13.6093 7.20383 13.556 7.16808L14.8961 5.82797ZM12.1686 8.5555L5 15.7241V18.9995L8.27544 18.9995L15.4441 11.8309C15.3907 11.7952 15.34 11.7537 15.2929 11.7066L12.2929 8.70659C12.2458 8.65947 12.2043 8.60883 12.1686 8.5555ZM19.1388 4.41376C17.5767 2.85166 15.044 2.85166 13.4819 4.41376L3.58579 14.3099C3.21071 14.685 3 15.1937 3 15.7241V18.9995C3 20.1041 3.89543 20.9995 5 20.9995H8.27544C8.80587 20.9995 9.31458 20.7888 9.68965 20.4138L19.5858 10.5176C21.1479 8.95553 21.1479 6.42287 19.5858 4.86077L19.1388 4.41376Z" fill="#353535"/>
</svg>
