<svg width="24" height="24" viewBox="0 0 24 24" fill="none" xmlns="http://www.w3.org/2000/svg">
<path fill-rule="evenodd" clip-rule="evenodd" d="M9 6C9 5.44772 9.44772 5 10 5C10.5523 5 11 5.44772 11 6H9ZM7 6H4C2.89543 6 2 6.89543 2 8V10C2 10.7403 2.4022 11.3866 3 11.7324V19C3 20.1046 3.89543 21 5 21H10.9926L11 21H13L13.0074 21H19C20.1046 21 21 20.1046 21 19V11.7324C21.5978 11.3866 22 10.7403 22 10V8C22 6.89543 21.1046 6 20 6H17C17 4.34315 15.6569 3 14 3C13.2316 3 12.5308 3.28885 12 3.76389C11.4692 3.28885 10.7684 3 10 3C8.34315 3 7 4.34315 7 6ZM15 6C15 5.44772 14.5523 5 14 5C13.4477 5 13 5.44772 13 6H15ZM5 19V12H9V19L5 19ZM9 8V10H4V8H9ZM15 19V12L19 12V19L15 19ZM20 10H15V8H20V10ZM13 19V8H11V19H13Z" fill="#353535"/>
</svg>
