<svg width="32" height="32" viewBox="0 0 32 32" fill="none" xmlns="http://www.w3.org/2000/svg">
<path fill-rule="evenodd" clip-rule="evenodd" d="M12.0003 8C12.0003 7.26362 12.5973 6.66667 13.3337 6.66667C14.07 6.66667 14.667 7.26362 14.667 8H12.0003ZM9.33366 8H5.33366C3.8609 8 2.66699 9.19391 2.66699 10.6667V13.3333C2.66699 14.3204 3.20326 15.1822 4.00033 15.6432V25.3333C4.00033 26.8061 5.19423 28 6.66699 28H14.6573L14.667 28H17.3337L17.3433 28H25.3337C26.8064 28 28.0003 26.8061 28.0003 25.3333V15.6432C28.7974 15.1822 29.3337 14.3204 29.3337 13.3333V10.6667C29.3337 9.19391 28.1397 8 26.667 8H22.667C22.667 5.79086 20.8761 4 18.667 4C17.6425 4 16.708 4.38514 16.0003 5.01852C15.2927 4.38514 14.3581 4 13.3337 4C11.1245 4 9.33366 5.79086 9.33366 8ZM20.0003 8C20.0003 7.26362 19.4034 6.66667 18.667 6.66667C17.9306 6.66667 17.3337 7.26362 17.3337 8H20.0003ZM6.66699 25.3333V16H12.0003V25.3333H6.66699ZM12.0003 10.6667V13.3333H5.33366V10.6667H12.0003ZM20.0003 25.3333L20.0003 16H25.3337V25.3333H20.0003ZM26.667 13.3333H20.0003V10.6667H26.667V13.3333ZM17.3337 25.3333V10.6667H14.667V25.3333H17.3337Z" fill="#FE827E"/>
</svg>
