<svg width="61" height="46" viewBox="0 0 61 46" fill="none" xmlns="http://www.w3.org/2000/svg">
<path d="M21.9789 17.7058C22.6238 16.888 23.0555 15.9259 23.2359 14.9042C23.4163 13.8825 23.3399 12.8327 23.0135 11.847C21.7775 7.934 17.652 6.69727 13.9077 6.69727C11.7115 6.69727 10.2995 6.96113 8.19953 7.49603C6.26628 7.9578 4.41381 8.7032 2.70373 9.70744C1.95958 10.1616 1.49132 10.5618 1.28986 10.9119C1.08709 11.3048 0.987247 11.7417 0.999462 12.1827C0.985219 12.5112 1.07881 12.8355 1.26626 13.1071C1.35215 13.2274 1.46743 13.3242 1.60135 13.3886C1.73528 13.4529 1.8835 13.4827 2.03219 13.4751C2.4442 13.4751 2.93969 13.2956 3.54227 12.9169C4.8418 12.0858 6.42447 11.4073 8.28121 10.8652C10.1557 10.3225 12.0997 10.051 14.0529 10.0593C16.4124 10.0593 19.202 10.849 19.663 13.5074C19.9933 15.4065 18.8481 17.0758 17.0803 17.6897C15.9252 18.0794 14.7159 18.2896 13.4957 18.3125C12.8985 18.3287 12.4938 18.5208 12.2687 18.8726C12.0279 19.2922 11.9133 19.7711 11.9384 20.2529C11.9384 20.6442 12.011 20.9314 12.1635 21.1073C12.3159 21.2832 12.5755 21.3784 12.9457 21.4017C14.5792 21.4591 15.7481 21.7858 16.4505 22.3764C16.7799 22.6381 17.0453 22.97 17.2269 23.3473C17.4086 23.7246 17.5017 24.1376 17.4995 24.5555C17.4995 25.794 16.8861 26.8064 15.6846 27.6069C14.483 28.4075 12.5519 28.797 9.95281 28.797C9.395 28.797 8.669 28.7569 7.77482 28.6767C7.97689 26.299 8.32113 23.8004 8.80755 21.1809C9.29215 18.562 9.77676 16.4781 10.2595 14.9452C10.3634 14.6419 10.4204 14.3248 10.4283 14.0046C10.4283 13.3333 9.86388 13.0066 8.72588 13.0066C8.19472 12.9846 7.66589 13.088 7.18314 13.3082C6.98496 13.4135 6.81232 13.5602 6.67724 13.7381C6.54215 13.916 6.44785 14.1209 6.40088 14.3385C5.65673 17.147 5.04326 20.0585 4.56047 23.0728C4.07769 26.0872 3.75159 28.9687 3.58219 31.7174C3.54226 32.3241 3.6548 32.7944 3.90527 33.0995C4.15573 33.4047 4.61674 33.5698 5.28647 33.5698C5.86448 33.5946 6.43706 33.4504 6.93267 33.1552C7.1422 33.0227 7.31383 32.8393 7.4311 32.6224C7.54837 32.4056 7.60735 32.1625 7.6024 31.9167C8.159 31.9741 8.90193 32.0034 9.83121 32.0046C12.325 32.0046 14.4534 31.6959 16.2163 31.0784C17.9793 30.4609 19.3218 29.5832 20.2438 28.4452C21.1666 27.2988 21.6551 25.8696 21.625 24.4047C21.6373 23.4588 21.3208 22.5375 20.7284 21.7948C20.1313 21.0355 19.2583 20.4934 18.1039 20.1578C19.637 19.793 21.0016 18.9295 21.9789 17.7058Z" fill="#3373BA"/>
<path d="M26.8299 16.2367C27.6775 16.2367 28.3563 16.0052 28.8645 15.5492C29.1202 15.3142 29.3212 15.0269 29.4535 14.7073C29.5857 14.3878 29.6461 14.0436 29.6304 13.6986C29.6452 13.4155 29.5915 13.133 29.4738 12.8745C29.356 12.616 29.1776 12.389 28.9534 12.2124C28.4417 11.8435 27.8182 11.658 27.1856 11.6864C26.4507 11.6633 25.7327 11.9073 25.1673 12.3721C24.9104 12.5777 24.7042 12.8384 24.5643 13.1344C24.4243 13.4305 24.3544 13.7542 24.3597 14.0809C24.3597 14.7594 24.5702 15.2943 24.9822 15.6695C25.3942 16.0446 26.0077 16.2367 26.8299 16.2367Z" fill="#3373BA"/>
<path d="M60.7092 18.333C60.5277 18.2127 60.2173 18.1535 59.7654 18.1535C59.1192 18.1535 58.6273 18.2809 58.3134 18.5286C57.9994 18.7763 57.7489 19.1981 57.5874 19.7851C57.2011 21.2732 56.7161 22.7345 56.1354 24.1595C55.7692 25.0939 55.2954 25.9835 54.7233 26.8106C54.2786 27.394 53.9156 27.6884 53.618 27.6884C53.206 27.6884 52.9954 27.3294 52.9954 26.5791C53.0084 25.977 53.069 25.3768 53.1769 24.7841C53.2979 24.0577 53.4353 23.2943 53.5889 22.4937C53.7105 21.9104 53.863 21.2552 54.0572 20.5372C54.2007 20.0209 54.3086 19.4955 54.3803 18.9648C54.3892 18.8503 54.3712 18.7353 54.3278 18.6288C54.2843 18.5223 54.2166 18.4272 54.1298 18.3509C53.9592 18.2145 53.6615 18.1427 53.2332 18.1427C52.4673 18.1427 51.9101 18.2701 51.5543 18.5179C51.1986 18.7656 50.9245 19.1874 50.7303 19.7743C50.3044 21.0356 49.9779 22.3277 49.7538 23.6389C49.6044 24.5899 49.5129 25.549 49.4798 26.5109C49.0046 27.044 48.4836 27.5352 47.9225 27.9792C47.3121 28.4363 46.5646 28.6783 45.799 28.6666C45.5678 28.6753 45.3374 28.6341 45.1239 28.5457C44.9104 28.4574 44.719 28.3241 44.563 28.1551C44.249 27.8122 44.0185 27.245 43.886 26.4463C45.9979 23.6378 47.7699 20.5943 49.1658 17.378C50.4653 14.3266 50.9808 12.6124 50.9808 10.2969C50.9808 8.19675 50.4363 5.15606 47.663 5.323C46.4833 5.3948 45.4178 6.09843 44.6519 6.99232C42.7226 9.25938 41.5846 12.5406 41.0038 15.3982C40.3818 18.4317 40.0721 21.1325 40.0745 23.5007C40.0703 24.3526 40.1273 25.2038 40.2451 26.0478C39.6523 26.7526 38.9922 27.3994 38.274 27.9792C37.6641 28.4359 36.9173 28.6779 36.1523 28.6666C35.9211 28.6755 35.6906 28.6343 35.4772 28.5459C35.2637 28.4575 35.0723 28.3242 34.9163 28.1551C34.6023 27.8122 34.3718 27.245 34.2393 26.4463C36.3507 23.6377 38.1221 20.5942 39.5173 17.378C40.8168 14.3266 41.3323 12.6124 41.3323 10.2969C41.3323 8.19675 40.7878 5.15606 38.0145 5.323C36.8366 5.3948 35.7711 6.09843 35.0052 6.99232C33.0759 9.25938 31.9361 12.5406 31.3553 15.3982C30.7345 18.4317 30.4254 21.1325 30.4278 23.5007C30.4233 24.3638 30.4839 25.226 30.6093 26.0801C30.0639 26.7275 29.4841 27.3458 28.8724 27.9325C28.3406 28.4189 27.8959 28.6505 27.5492 28.6505C27.3845 28.6613 27.2204 28.6229 27.078 28.5403C26.9356 28.4578 26.8215 28.3348 26.7506 28.1874C26.5891 27.8768 26.5165 27.4299 26.5165 26.8465C26.5165 26.0891 26.7531 24.6417 27.2262 22.5045C27.5982 20.7311 27.7834 19.6056 27.7834 19.1192C27.7834 18.4568 27.2824 18.1283 26.2824 18.1283C25.6362 18.1283 25.1607 18.2486 24.8685 18.4873C24.5763 18.7261 24.3367 19.1497 24.1588 19.7725C23.7874 21.0306 23.4965 22.3106 23.2876 23.6048C23.0859 24.7174 22.9724 25.8439 22.9482 26.974C22.9482 28.4518 23.2386 29.6383 23.8194 30.5334C24.4002 31.4285 25.3289 31.8761 26.6055 31.8761C28.1131 31.8761 29.7272 30.9337 31.4478 29.049C31.5205 29.218 31.6017 29.3834 31.6911 29.5444C32.5223 31.1 33.8055 31.8778 35.5407 31.8778C36.7412 31.8958 37.9186 31.55 38.9147 30.887C39.7082 30.3546 40.4345 29.7303 41.0782 29.0274C41.1599 29.2069 41.2397 29.3864 41.3287 29.5462C42.1599 31.1018 43.4431 31.8796 45.1783 31.8796C46.3788 31.8976 47.5562 31.5518 48.5523 30.8888C49.0122 30.5817 49.4495 30.2428 49.8609 29.8747C49.9756 30.1561 50.1216 30.4241 50.2965 30.6734C50.8537 31.4794 51.5797 31.8868 52.46 31.8868C53.2423 31.8868 53.9937 31.5189 54.7033 30.7937C55.413 30.0685 55.9629 28.9987 56.3586 27.6004C56.1771 28.9413 56.0283 29.9716 55.8903 30.6896L55.8014 31.3609C53.696 32.956 52.071 34.3687 50.9263 35.5988C49.7793 36.8374 48.9898 37.9323 48.5669 38.88C48.1605 39.7603 47.9436 40.7144 47.9298 41.682C47.9298 42.6728 48.2438 43.477 48.8736 44.0855C49.5034 44.694 50.3256 45.0027 51.3202 45.0027C53.4437 45.0027 55.1444 43.5446 56.4221 40.6283C57.6999 37.7121 58.7036 33.7554 59.4332 28.7582C59.5131 28.2538 59.7799 26.6258 60.2318 23.8884C60.74 21.029 60.9996 19.3687 60.9996 18.8984C60.9982 18.7884 60.9712 18.6803 60.9209 18.5822C60.8706 18.4842 60.7981 18.3989 60.7092 18.333ZM34.733 15.6495C34.9762 14.2925 35.2775 12.1529 35.9763 10.5482C36.2195 9.98993 36.5734 9.27912 37.0834 8.89679C37.2006 8.79827 37.3418 8.73171 37.493 8.7037C37.6442 8.67568 37.8002 8.68717 37.9455 8.73704C39.6335 9.45503 37.764 14.5797 37.3575 15.689C36.4838 18.0735 35.3667 20.3638 34.0233 22.5242C34.0789 20.2191 34.3161 17.9217 34.733 15.6531V15.6495ZM44.3724 15.6495C44.6138 14.2925 44.9169 12.1529 45.6157 10.5482C45.8571 9.98993 46.2128 9.27912 46.721 8.89679C46.8385 8.79811 46.98 8.73148 47.1315 8.70346C47.283 8.67544 47.4393 8.68701 47.5849 8.73704C49.2711 9.45503 47.4034 14.5797 46.9951 15.689C46.1222 18.0738 45.005 20.3642 43.6609 22.5242C43.7207 20.2193 43.9585 17.9222 44.3724 15.6531V15.6495ZM53.284 40.4937C52.6706 41.6192 52.1206 42.1864 51.6287 42.1864C51.503 42.1974 51.3766 42.1732 51.264 42.1168C51.1514 42.0603 51.057 41.9737 50.9917 41.8669C50.8531 41.6178 50.7859 41.336 50.7975 41.052C50.7975 40.2783 51.1369 39.3683 51.8139 38.3308C52.4909 37.2933 53.5908 36.1355 55.099 34.8737C54.494 37.4943 53.889 39.3689 53.284 40.4973V40.4937Z" fill="#3373BA"/>
<path d="M25.8045 4.45711C25.7103 4.3924 25.5941 4.3672 25.4811 4.38705C25.3682 4.4069 25.2678 4.47017 25.2019 4.56301L24.8988 4.9956L24.3852 5.72436C24.2382 5.93318 24.0135 6.07578 23.7603 6.12088C23.5071 6.16598 23.2462 6.10987 23.0348 5.96489C22.8812 5.86028 22.7758 5.69966 22.7417 5.51827C22.7077 5.33688 22.7478 5.14955 22.8533 4.9974L23.8225 3.61886C23.8549 3.57278 23.8779 3.52083 23.89 3.46599C23.9021 3.41114 23.9032 3.35448 23.8932 3.29922C23.8831 3.24397 23.8622 3.19121 23.8315 3.14396C23.8009 3.0967 23.7611 3.05588 23.7145 3.02382C23.6679 2.99177 23.6154 2.9691 23.56 2.95712C23.5045 2.94513 23.4472 2.94407 23.3913 2.95399C23.3355 2.96391 23.2821 2.98461 23.2343 3.01492C23.1866 3.04522 23.1453 3.08454 23.1129 3.13063L22.1437 4.50916C21.9087 4.84679 21.818 5.26254 21.8914 5.66595C21.9649 6.06935 22.1964 6.42774 22.5357 6.66313C22.8089 6.84983 23.1282 6.95964 23.4595 6.98084C23.2686 7.15366 23.024 7.2572 22.7658 7.27449C22.5076 7.29177 22.2511 7.22178 22.0384 7.07598L21.6191 6.78699C21.525 6.72694 21.4109 6.70544 21.3009 6.72703C21.191 6.74862 21.0939 6.81161 21.0301 6.9027C20.9662 6.99378 20.9407 7.10584 20.9588 7.2152C20.977 7.32457 21.0374 7.42268 21.1273 7.48882L21.5465 7.77781C21.9834 8.07694 22.5223 8.19257 23.0453 8.09937C23.5682 8.00617 24.0324 7.71174 24.3362 7.2806L25.0894 6.20362L25.603 5.47486L25.9062 5.04227C25.9692 4.95073 25.9939 4.83855 25.9749 4.72938C25.9559 4.6202 25.8949 4.52259 25.8045 4.45711Z" fill="#3373BA"/>
<path d="M10.909 5.35497C10.8542 5.37072 10.7967 5.375 10.7402 5.36754C10.6861 5.36123 10.6337 5.34478 10.5859 5.31908C10.538 5.29305 10.496 5.25762 10.4625 5.21497C10.4268 5.1711 10.4009 5.12035 10.3862 5.06598L9.26095 1.05601C9.24426 1.00137 9.23994 0.943768 9.24825 0.887284C9.25464 0.833564 9.27192 0.781669 9.29907 0.73471C9.32612 0.687836 9.36256 0.646913 9.40616 0.614447C9.45148 0.580067 9.50332 0.55504 9.55861 0.540853L11.3028 0.0615949C11.4838 0.010374 11.6735 -0.00307405 11.86 0.0221053C12.0388 0.0455214 12.2114 0.10281 12.3682 0.190833C12.5252 0.278307 12.6634 0.395397 12.7748 0.535468C12.8908 0.681134 12.976 0.848395 13.0253 1.02729C13.0727 1.19718 13.088 1.37424 13.0706 1.54963C13.053 1.72217 13.007 1.89072 12.9345 2.04863C13.1356 2.14216 13.3149 2.27603 13.4608 2.44173C13.6115 2.61187 13.7208 2.81389 13.7803 3.03228C13.8346 3.22056 13.8494 3.41785 13.8239 3.61201C13.7983 3.80617 13.7328 3.9931 13.6315 4.16131C13.5333 4.32868 13.4033 4.4756 13.2485 4.5939C13.0865 4.71797 12.9015 4.80944 12.704 4.86315L10.909 5.35497ZM10.7402 3.15793L11.1032 4.42518L12.4535 4.05541C12.5446 4.03094 12.6294 3.98749 12.7022 3.92797C12.7752 3.87033 12.8368 3.79972 12.8837 3.71975C12.9272 3.64046 12.956 3.55416 12.969 3.46487C12.9817 3.37554 12.9762 3.28458 12.9526 3.19741C12.9296 3.11469 12.8883 3.03801 12.8319 2.97286C12.7754 2.9077 12.7051 2.85567 12.626 2.82047C12.5472 2.78427 12.4622 2.76354 12.3755 2.75944C12.2838 2.75245 12.1917 2.76157 12.1032 2.78637L10.7402 3.15793ZM10.1957 1.24269L10.5042 2.34121L11.8056 1.98222C11.8792 1.96008 11.9472 1.92276 12.0052 1.87272C12.0629 1.82181 12.1109 1.761 12.1468 1.69323C12.1813 1.62886 12.204 1.55898 12.2139 1.4868C12.2231 1.41405 12.2175 1.34023 12.1976 1.26961C12.1773 1.19706 12.1414 1.12971 12.0923 1.07217C12.0417 1.01471 11.98 0.967732 11.9108 0.933953C11.8442 0.89664 11.7708 0.872679 11.6948 0.863439C11.6188 0.854199 11.5418 0.859861 11.468 0.880103L10.1957 1.24269Z" fill="#3373BA"/>
<path d="M14.058 2.68038C14.0698 2.43047 14.1347 2.18583 14.2485 1.9624C14.4671 1.52814 14.8459 1.19341 15.3067 1.02722C15.5424 0.942279 15.7932 0.906231 16.0436 0.921312C16.2906 0.935122 16.5324 0.997102 16.7551 1.10369C16.9779 1.21027 17.1771 1.35936 17.3413 1.54237C17.5008 1.72152 17.6241 1.92932 17.7043 2.15446C17.7947 2.39149 17.8336 2.64468 17.8186 2.89758L17.7406 4.27791C17.7342 4.39149 17.6827 4.49795 17.5972 4.57408C17.5541 4.61262 17.5036 4.6423 17.4488 4.6614C17.3939 4.68051 17.3358 4.68865 17.2778 4.68537C17.1829 4.68316 17.0923 4.64603 17.0237 4.58126C16.9563 4.51904 16.9106 4.43737 16.893 4.34792C16.7385 4.45096 16.5698 4.53137 16.3921 4.58665C16.2124 4.6413 16.0243 4.66379 15.8367 4.65306C15.5847 4.64375 15.3374 4.58262 15.1107 4.47357C14.8933 4.36698 14.6986 4.22013 14.5371 4.04098C14.3784 3.85989 14.2553 3.65109 14.1741 3.4253C14.082 3.18805 14.0424 2.93404 14.058 2.68038ZM14.9128 2.72706C14.9044 2.86183 14.9242 2.99687 14.9709 3.12374C15.0159 3.24768 15.0849 3.36171 15.1742 3.45941C15.2621 3.55722 15.3681 3.63762 15.4864 3.69634C15.6093 3.75647 15.7433 3.79127 15.8802 3.79866C16.0176 3.80609 16.1552 3.78657 16.285 3.74122C16.4092 3.69671 16.5233 3.62839 16.6207 3.54018C16.8212 3.36001 16.9424 3.10937 16.9583 2.84193C16.9666 2.70614 16.9474 2.57008 16.9021 2.44166C16.8135 2.19341 16.6296 1.98964 16.3902 1.87444C16.2672 1.81468 16.1333 1.77991 15.9964 1.7722C15.8596 1.76449 15.7226 1.784 15.5935 1.82957C15.4691 1.87444 15.3541 1.94135 15.254 2.02701C15.1552 2.11358 15.0744 2.21847 15.0163 2.33575C14.9551 2.45771 14.9205 2.59102 14.9146 2.72706H14.9128Z" fill="#3373BA"/>
<path d="M19.1403 0.317881C19.157 0.26072 19.1855 0.207565 19.2238 0.161716C19.2597 0.117781 19.3034 0.0806771 19.3527 0.0522225C19.4013 0.0251011 19.4551 0.00800479 19.5106 0.00196343C19.5681 -0.00354384 19.6261 0.00256404 19.6812 0.0199143C19.7379 0.0354207 19.7906 0.0629858 19.8355 0.100688C19.8781 0.136234 19.9128 0.180269 19.9371 0.229926C19.9609 0.280277 19.9756 0.334333 19.9807 0.389679C19.9844 0.450321 19.9771 0.511137 19.9589 0.569176L19.5959 1.73412C19.7675 1.68487 19.9453 1.65949 20.1241 1.65873C20.3087 1.65706 20.4925 1.68432 20.6685 1.7395C20.9099 1.80946 21.1337 1.9287 21.3256 2.08952C21.51 2.2446 21.6638 2.43203 21.7793 2.64237C21.8919 2.85476 21.9633 3.0861 21.9899 3.32446C22.0165 3.57282 21.9912 3.82395 21.9154 4.0622C21.8413 4.3008 21.7177 4.5215 21.5524 4.71018C21.3959 4.89401 21.2056 5.04688 20.9916 5.16072C20.7783 5.27418 20.5446 5.34551 20.3037 5.37073C20.0535 5.39909 19.8 5.37524 19.5596 5.30073C19.3188 5.22637 19.0958 5.10422 18.9044 4.94173C18.7185 4.78619 18.564 4.59742 18.4488 4.38529C18.3352 4.1727 18.2637 3.94056 18.2383 3.70141C18.2113 3.45507 18.2354 3.20587 18.3091 2.96906L19.1403 0.317881ZM19.1403 3.21856C19.0992 3.34783 19.0856 3.48412 19.1004 3.61884C19.1295 3.882 19.2594 4.12414 19.4634 4.29554C19.5693 4.38375 19.6931 4.44862 19.8264 4.48581C19.9571 4.5263 20.0949 4.53975 20.2311 4.5253C20.3625 4.51035 20.4899 4.4714 20.6068 4.41042C20.7249 4.3491 20.8292 4.26485 20.9136 4.16271C21.0883 3.95142 21.1717 3.68056 21.1459 3.40883C21.1322 3.27886 21.0934 3.15271 21.0315 3.03727C20.9681 2.92355 20.8845 2.82202 20.7847 2.73751C20.6786 2.6491 20.555 2.58368 20.4217 2.54544C20.2903 2.50495 20.152 2.49152 20.0151 2.50595C19.8847 2.52138 19.7581 2.55967 19.6413 2.61904C19.5237 2.67962 19.4195 2.76259 19.3345 2.86315C19.2454 2.96694 19.1793 3.088 19.1403 3.21856Z" fill="#3373BA"/>
</svg>
